<svg xmlns="http://www.w3.org/2000/svg" xmlns:xlink="http://www.w3.org/1999/xlink"
     viewBox="0 0 161.38 100.8">
    <title>Header_logo</title>
    <g>
        <defs>
            <filter id="f3" x="-2" y="-4" width="181.38" height="120.8">
                <feOffset result="offOut" in="SourceAlpha" dx="0" dy="6" />
                <feGaussianBlur result="blurOut" in="offOut" stdDeviation="6" />
                <feBlend in="SourceGraphic" in2="blurOut" />
                <feComponentTransfer>
                    <feFuncA type="linear" slope="0.5"/>
                </feComponentTransfer>
                <feMerge>
                    <feMergeNode/>
                    <feMergeNode in="SourceGraphic"/>
                </feMerge>
            </filter>
        </defs>
        <path d="M158,50.81c0-1.12.06-2.25.06-3.41a3.44,3.44,0,0,0-6.88,0c0,2.56-.09,5-.24,7.27-.52,4.8-2.07,9-4.21,11.23a5.15,5.15,0,0,1-7.79-.21c-3.29-3.69-4.3-11.79-3.6-17.89a3.44,3.44,0,1,0-6.83-.79,42.42,42.42,0,0,0,0,9.5c0,.27-.06.55-.1.83-1.48,12-6.6,14.47-10.63,14.47a12,12,0,0,1-3.75-.72l.2-.22a23.72,23.72,0,0,0,6.16-15.1,12.28,12.28,0,0,0-2.76-8.2A10.93,10.93,0,0,0,109,44a10.72,10.72,0,0,0-9.21,5.16C96.67,53.9,96.38,61,99,66.78A17.12,17.12,0,0,0,101.75,71a14,14,0,0,1-4.52.82c-4.83,0-11.8-5.93-15.81-10.22A58.75,58.75,0,0,0,92.93,49.38a3.44,3.44,0,0,0-5.63-4A50.32,50.32,0,0,1,75.38,57.49l0-10.08A3.43,3.43,0,0,0,72,44h0a3.43,3.43,0,0,0-3.44,3.43l0,20.17-.2-.16-.45-.35c-.25-.2-.5-.4-.76-.59l-.46-.35-.81-.59-.41-.29c-.34-.24-.68-.48-1-.71l-.21-.14c-.43-.29-.87-.58-1.32-.86l-.08-.05c-.41-.26-.81-.51-1.23-.75l-.29-.18-1.06-.6-.33-.19-1.08-.59L58.47,61l-1.35-.68h0l-.33-.15-1-.47-.67-.3-.69-.3-.68-.29L53,58.49l-.42-.17-.17-.06-.89-.34a59.37,59.37,0,0,0,5.44-8.13,41.59,41.59,0,0,0,4.72-12.87A28.53,28.53,0,0,0,62,29.68a26,26,0,0,0-.6-3.69,22,22,0,0,0-1.19-3.6A22.33,22.33,0,0,0,58.46,19a23,23,0,0,0-2.26-3c-.41-.46-.83-.92-1.27-1.34s-.89-.84-1.35-1.23a24.46,24.46,0,0,0-3-2.21,21.94,21.94,0,0,0-7.06-2.9,21.42,21.42,0,0,0-7.65-.23,24.67,24.67,0,0,0-7.1,2.2,27.47,27.47,0,0,0-6.09,4,25.23,25.23,0,0,0-4.88,5.57A19,19,0,0,0,16,23.48,13.13,13.13,0,0,0,15.2,28v0a4.25,4.25,0,0,0,8.49,0v0A5.11,5.11,0,0,1,24,26.38a10.9,10.9,0,0,1,1-1.93,16.75,16.75,0,0,1,3.25-3.68,18,18,0,0,1,8.88-4.23,13.12,13.12,0,0,1,4.64.14,13.36,13.36,0,0,1,4.32,1.78,18.23,18.23,0,0,1,3.76,3.22,14.82,14.82,0,0,1,1.46,1.93,14.21,14.21,0,0,1,1.12,2.11,15.22,15.22,0,0,1,1.13,4.67,19.82,19.82,0,0,1-.27,5.07,33,33,0,0,1-3.79,10.22A52.94,52.94,0,0,1,42.88,55l-.37.41-.86-.16L41,55.14,40.17,55,39.75,55l-.31,0-.78-.1-.73-.08-1.41-.13h0l-.47,0-1,0-.7,0H31.69l-.45,0q-1.6.06-3.21.24l-.28,0L26.49,55l-.24,0L26,55l-.44.07-.62.12-.54.11-1.35.3-.19,0c-.53.13-1.05.28-1.57.43l-.36.11-1.17.39-.22.07-.29.11-1,.4-.54.22-1,.46-.39.17-.08.05c-.45.22-.9.45-1.34.69l-.07,0-.09,0-.4.23-.07,0-.09.06-.22.12,0,0-.35.2a9.33,9.33,0,0,0-1.24.93A11.54,11.54,0,0,0,8.09,68a9.89,9.89,0,0,0,.13,3.06.43.43,0,0,0,0,.11c0,.14.06.29.1.43s0,.06,0,.09a.64.64,0,0,0,0,.07l.12.41a1.72,1.72,0,0,1,.07.21c0,.12.09.25.14.37s.15.37.24.56H9l0,.06c.07.14.14.29.22.43a.41.41,0,0,0,0,.09l.08.13a3.87,3.87,0,0,0,.27.43l.09.15L10,75a1.71,1.71,0,0,0,.11.14c.12.16.24.3.37.45l0,0h0a5.66,5.66,0,0,0,.42.43l.12.13.32.29.16.13.32.26L12,77l.36.26.1.07h0l.51.32,0,0,.45.25.15.07.19.1.08,0a8.58,8.58,0,0,0,.83.35h0c.28.11.57.2.86.29l.1,0,.85.2.19,0,.26,0,.57.08h0c.29,0,.57,0,.86.06h1.22l.77-.08.14,0h0l.6-.11.27-.06h0l.06,0h.06l.1,0a37.74,37.74,0,0,0,6.54-2.3,56.55,56.55,0,0,0,11.39-6.94,68.82,68.82,0,0,0,6.22-5.46l.1,0,.77.22.49.14,1.18.37.27.1,1,.35.37.14,1,.37.24.09,1.17.48.07,0,1.57.7c.56.26,1.12.54,1.68.82l.33.17c.63.32,1.25.65,1.87,1l.18.11c.64.36,1.28.74,1.9,1.13h0c.62.38,1.23.78,1.83,1.19l.27.19c.58.4,1.16.81,1.73,1.24l.17.13c.51.39,1,.79,1.52,1.2l.3.24q.78.65,1.53,1.32l.35.31c.51.47,1,.94,1.51,1.43h0l0,0a3.49,3.49,0,0,0,1.79.91,3.65,3.65,0,0,0,.74.08h0a3.43,3.43,0,0,0,3.44-3.43l0-10.15c3.78,4.25,13.07,13.58,21.87,13.58A21.93,21.93,0,0,0,108,75.91a21.26,21.26,0,0,0,9.79,2.78c6.58,0,11.65-3.6,14.68-10.15a16.27,16.27,0,0,0,1.34,1.73,12,12,0,0,0,9.16,4.19,11.72,11.72,0,0,0,3.41-.5,29.67,29.67,0,0,1-1.5,2.61c-4.53,6.94-11.66,10.32-21.8,10.32a3.44,3.44,0,0,0,0,6.88c12.47,0,21.74-4.52,27.56-13.43,4.07-6.25,6.44-14.56,7.18-25.27A39.35,39.35,0,0,0,158,50.81Zm-133.15,18a29.85,29.85,0,0,1-5.1,1.8l-.16,0h0a3,3,0,0,1-.43.06l-.1,0a3.54,3.54,0,0,1-.46,0h-.1a2.49,2.49,0,0,1-.46-.09h0a2.74,2.74,0,0,1-.4-.15l-.09,0-.08,0-.15-.09-.09-.06-.13-.1-.05,0a2.1,2.1,0,0,1-.26-.28v0a.41.41,0,0,1-.05-.09l0,0,0-.08v0a1.49,1.49,0,0,1,0-.58A3.23,3.23,0,0,1,17.67,67c.15-.12.31-.22.47-.34s.06-.06.12-.09l0,0h0l.2-.13.42-.25c.33-.19.66-.37,1-.55l.34-.17L21,65.1l.39-.17.78-.32.37-.14c.3-.12.6-.23.91-.33l.25-.08c.4-.14.8-.26,1.21-.37l.12,0,1.07-.27.43-.09.84-.17L27.8,63l1-.16.22,0c.86-.12,1.73-.21,2.6-.27H32l.89,0H35c-.16.13-.31.26-.48.38A47.43,47.43,0,0,1,24.82,68.81Zm83-1.37a11.34,11.34,0,0,1-2.59-3.51c-1.65-3.63-1.54-8.29.26-11.08a3.89,3.89,0,0,1,3.42-2,4.36,4.36,0,0,1,3.45,1.24,5.78,5.78,0,0,1,1.08,3.69A15.34,15.34,0,0,1,107.86,67.44Z"
              style="fill:#00ed8b;" filter="url(#f3)" />
    </g>
</svg>
